<svg width="66" height="63" viewBox="0 0 66 63" fill="none" xmlns="http://www.w3.org/2000/svg">
<g id="balance">
<mask id="mask0_454_407" style="mask-type:alpha" maskUnits="userSpaceOnUse" x="0" y="0" width="66" height="63">
<rect id="Bounding box" x="0.822266" y="0.139648" width="64.6868" height="62.2124" fill="#D9D9D9"/>
</mask>
<g mask="url(#mask0_454_407)">
<path id="balance_2" d="M6.21289 54.5757V49.3914H30.4704V20.4237C29.3025 20.0349 28.2918 19.43 27.4382 18.6092C26.5847 17.7883 25.9558 16.8162 25.5515 15.693H16.994L25.0799 33.8383C25.0799 35.9984 24.159 37.8345 22.3172 39.3466C20.4754 40.8588 18.2518 41.6148 15.6464 41.6148C13.0409 41.6148 10.8173 40.8588 8.97556 39.3466C7.13378 37.8345 6.21289 35.9984 6.21289 33.8383L14.2987 15.693H8.90817V10.5086H25.5515C26.0906 8.99648 27.0564 7.75439 28.449 6.78232C29.8415 5.81025 31.4138 5.32422 33.1657 5.32422C34.9177 5.32422 36.4899 5.81025 37.8825 6.78232C39.275 7.75439 40.2408 8.99648 40.7799 10.5086H57.4233V15.693H52.0327L60.1186 33.8383C60.1186 35.9984 59.1977 37.8345 57.3559 39.3466C55.5141 40.8588 53.2905 41.6148 50.6851 41.6148C48.0796 41.6148 45.856 40.8588 44.0142 39.3466C42.1725 37.8345 41.2516 35.9984 41.2516 33.8383L49.3374 15.693H40.7799C40.3756 16.8162 39.7467 17.7883 38.8932 18.6092C38.0397 19.43 37.029 20.0349 35.861 20.4237V49.3914H60.1186V54.5757H6.21289ZM45.6314 33.8383H55.7387L50.6851 22.5622L45.6314 33.8383ZM10.5927 33.8383H20.7L15.6464 22.5622L10.5927 33.8383ZM33.1657 15.693C33.9294 15.693 34.5695 15.4445 35.0861 14.9477C35.6027 14.4509 35.861 13.8352 35.861 13.1008C35.861 12.3663 35.6027 11.7507 35.0861 11.2538C34.5695 10.757 33.9294 10.5086 33.1657 10.5086C32.4021 10.5086 31.7619 10.757 31.2453 11.2538C30.7287 11.7507 30.4704 12.3663 30.4704 13.1008C30.4704 13.8352 30.7287 14.4509 31.2453 14.9477C31.7619 15.4445 32.4021 15.693 33.1657 15.693Z" fill="#00661D"/>
</g>
</g>
</svg>
