<svg width="140" height="140" viewBox="0 0 140 140" fill="none" xmlns="http://www.w3.org/2000/svg">
<path d="M60.3168 101.817L109.079 53.0541L99.396 43.3708L60.3168 82.4499L40.6043 62.7374L30.921 72.4208L60.3168 101.817ZM70.0002 139.167C60.4321 139.167 51.4404 137.351 43.0252 133.72C34.6099 130.088 27.2897 125.16 21.0647 118.935C14.8397 112.71 9.91162 105.39 6.28037 96.9749C2.64912 88.5596 0.833496 79.568 0.833496 69.9999C0.833496 60.4319 2.64912 51.4402 6.28037 43.0249C9.91162 34.6096 14.8397 27.2895 21.0647 21.0645C27.2897 14.8395 34.6099 9.91138 43.0252 6.28013C51.4404 2.64888 60.4321 0.833252 70.0002 0.833252C79.5682 0.833252 88.5599 2.64888 96.9752 6.28013C105.39 9.91138 112.711 14.8395 118.936 21.0645C125.161 27.2895 130.089 34.6096 133.72 43.0249C137.351 51.4402 139.167 60.4319 139.167 69.9999C139.167 79.568 137.351 88.5596 133.72 96.9749C130.089 105.39 125.161 112.71 118.936 118.935C112.711 125.16 105.39 130.088 96.9752 133.72C88.5599 137.351 79.5682 139.167 70.0002 139.167ZM70.0002 125.333C85.4474 125.333 98.5314 119.973 109.252 109.252C119.973 98.5312 125.334 85.4471 125.334 69.9999C125.334 54.5527 119.973 41.4687 109.252 30.7478C98.5314 20.027 85.4474 14.6666 70.0002 14.6666C54.5529 14.6666 41.4689 20.027 30.7481 30.7478C20.0272 41.4687 14.6668 54.5527 14.6668 69.9999C14.6668 85.4471 20.0272 98.5312 30.7481 109.252C41.4689 119.973 54.5529 125.333 70.0002 125.333Z" fill="#00661D"/>
</svg>
