<svg width="128" height="93" viewBox="0 0 128 93" fill="none" xmlns="http://www.w3.org/2000/svg">
<path d="M0.464844 92.4421V69.3839C0.464844 66.1174 1.59373 63.3792 3.85151 61.1695C6.10929 58.9597 8.82343 57.8549 11.9939 57.8549H30.8728C32.7943 57.8549 34.6197 58.3352 36.3491 59.296C38.0785 60.2568 39.4716 61.5538 40.5284 63.1871C43.3146 66.934 46.7493 69.8643 50.8325 71.978C54.9157 74.0917 59.2631 75.1485 63.8748 75.1485C68.5825 75.1485 72.978 74.0917 77.0612 71.978C81.1444 69.8643 84.5311 66.934 87.2212 63.1871C88.4702 61.5538 89.9353 60.2568 91.6166 59.296C93.298 58.3352 95.0513 57.8549 96.8768 57.8549H115.756C119.022 57.8549 121.76 58.9597 123.97 61.1695C126.18 63.3792 127.285 66.1174 127.285 69.3839V92.4421H86.9329V79.3278C83.5703 81.7297 79.9434 83.5551 76.0524 84.8041C72.1613 86.0531 68.1021 86.6776 63.8748 86.6776C59.7435 86.6776 55.7084 86.0291 51.7692 84.732C47.8301 83.435 44.1793 81.5856 40.8166 79.1837V92.4421H0.464844ZM63.8748 69.3839C60.2239 69.3839 56.7652 68.5433 53.4986 66.862C50.232 65.1806 47.4939 62.8508 45.2841 59.8725C43.6509 57.4706 41.6092 55.5731 39.1593 54.18C36.7094 52.7869 34.0433 52.0903 31.161 52.0903C33.2747 48.5355 37.7422 45.7253 44.5636 43.6597C51.3849 41.5941 57.822 40.5612 63.8748 40.5612C69.9276 40.5612 76.3646 41.5941 83.186 43.6597C90.0074 45.7253 94.4749 48.5355 96.5885 52.0903C93.8024 52.0903 91.1603 52.7869 88.6623 54.18C86.1643 55.5731 84.0987 57.4706 82.4654 59.8725C80.3518 62.9469 77.6616 65.3007 74.3951 66.934C71.1285 68.5673 67.6217 69.3839 63.8748 69.3839ZM17.7585 52.0903C12.9547 52.0903 8.87146 50.409 5.50882 47.0464C2.14617 43.6837 0.464844 39.6005 0.464844 34.7967C0.464844 29.8969 2.14617 25.7896 5.50882 22.475C8.87146 19.1604 12.9547 17.5031 17.7585 17.5031C22.6583 17.5031 26.7656 19.1604 30.0802 22.475C33.3948 25.7896 35.0521 29.8969 35.0521 34.7967C35.0521 39.6005 33.3948 43.6837 30.0802 47.0464C26.7656 50.409 22.6583 52.0903 17.7585 52.0903ZM109.991 52.0903C105.187 52.0903 101.104 50.409 97.7415 47.0464C94.3788 43.6837 92.6975 39.6005 92.6975 34.7967C92.6975 29.8969 94.3788 25.7896 97.7415 22.475C101.104 19.1604 105.187 17.5031 109.991 17.5031C114.891 17.5031 118.998 19.1604 122.313 22.475C125.627 25.7896 127.285 29.8969 127.285 34.7967C127.285 39.6005 125.627 43.6837 122.313 47.0464C118.998 50.409 114.891 52.0903 109.991 52.0903ZM63.8748 34.7967C59.071 34.7967 54.9878 33.1154 51.6251 29.7527C48.2625 26.3901 46.5812 22.3069 46.5812 17.5031C46.5812 12.6032 48.2625 8.496 51.6251 5.18139C54.9878 1.86678 59.071 0.209473 63.8748 0.209473C68.7746 0.209473 72.8819 1.86678 76.1965 5.18139C79.5111 8.496 81.1684 12.6032 81.1684 17.5031C81.1684 22.3069 79.5111 26.3901 76.1965 29.7527C72.8819 33.1154 68.7746 34.7967 63.8748 34.7967Z" fill="#00661D"/>
</svg>
