<svg width="1568" height="193" viewBox="0 0 1568 193" fill="none" xmlns="http://www.w3.org/2000/svg">
<path d="M13.75 29.3125H33.5625L94.4375 61.1875V29.3125H114.25V127H94.4375V82.1875L33.5625 50.5V127H13.75V29.3125ZM136.125 77.875C136.125 70.5 137.479 63.75 140.188 57.625C142.896 51.5 146.688 46.25 151.562 41.875C156.479 37.4583 162.354 34.0417 169.188 31.625C176.062 29.2083 183.667 28 192 28C200.292 28 207.875 29.2083 214.75 31.625C221.625 34.0417 227.5 37.4583 232.375 41.875C237.292 46.25 241.104 51.5 243.812 57.625C246.521 63.75 247.875 70.5 247.875 77.875C247.875 85.2917 246.521 92.1042 243.812 98.3125C241.104 104.479 237.292 109.792 232.375 114.25C227.5 118.708 221.625 122.188 214.75 124.688C207.875 127.146 200.292 128.375 192 128.375C183.667 128.375 176.062 127.146 169.188 124.688C162.354 122.188 156.479 118.708 151.562 114.25C146.688 109.792 142.896 104.479 140.188 98.3125C137.479 92.1042 136.125 85.2917 136.125 77.875ZM155.938 77.875C155.938 82.9167 156.833 87.4583 158.625 91.5C160.458 95.5417 162.979 99 166.188 101.875C169.438 104.708 173.25 106.896 177.625 108.438C182.042 109.979 186.833 110.75 192 110.75C197.167 110.75 201.938 109.979 206.312 108.438C210.729 106.896 214.542 104.708 217.75 101.875C220.958 99 223.479 95.5417 225.312 91.5C227.146 87.4583 228.062 82.9167 228.062 77.875C228.062 72.8333 227.146 68.3125 225.312 64.3125C223.479 60.3125 220.958 56.9375 217.75 54.1875C214.542 51.3958 210.729 49.2708 206.312 47.8125C201.938 46.3542 197.167 45.625 192 45.625C186.833 45.625 182.042 46.3542 177.625 47.8125C173.25 49.2708 169.438 51.3958 166.188 54.1875C162.979 56.9375 160.458 60.3125 158.625 64.3125C156.833 68.3125 155.938 72.8333 155.938 77.875ZM274.438 97.9375C277.979 99.9375 281.562 101.75 285.188 103.375C288.854 104.958 292.646 106.312 296.562 107.438C300.479 108.521 304.583 109.354 308.875 109.938C313.208 110.521 317.812 110.812 322.688 110.812C328.562 110.812 333.562 110.438 337.688 109.688C341.812 108.896 345.167 107.833 347.75 106.5C350.375 105.125 352.271 103.5 353.438 101.625C354.646 99.75 355.25 97.7083 355.25 95.5C355.25 91.9583 353.771 89.1667 350.812 87.125C347.854 85.0417 343.292 84 337.125 84C334.417 84 331.562 84.1875 328.562 84.5625C325.562 84.8958 322.521 85.2708 319.438 85.6875C316.396 86.1042 313.375 86.5 310.375 86.875C307.417 87.2083 304.625 87.375 302 87.375C297.625 87.375 293.417 86.8125 289.375 85.6875C285.375 84.5625 281.812 82.875 278.688 80.625C275.604 78.375 273.146 75.5625 271.312 72.1875C269.479 68.8125 268.562 64.875 268.562 60.375C268.562 57.7083 268.917 55.0625 269.625 52.4375C270.375 49.8125 271.542 47.3125 273.125 44.9375C274.75 42.5208 276.833 40.2917 279.375 38.25C281.917 36.1667 284.979 34.375 288.562 32.875C292.188 31.375 296.354 30.2083 301.062 29.375C305.812 28.5 311.208 28.0625 317.25 28.0625C321.625 28.0625 326.021 28.3125 330.438 28.8125C334.854 29.2708 339.146 29.9375 343.312 30.8125C347.521 31.6875 351.562 32.75 355.438 34C359.312 35.2083 362.917 36.5625 366.25 38.0625L357.562 54.0625C354.812 52.8542 351.854 51.75 348.688 50.75C345.521 49.7083 342.208 48.8125 338.75 48.0625C335.292 47.3125 331.708 46.7292 328 46.3125C324.333 45.8542 320.583 45.625 316.75 45.625C311.292 45.625 306.792 46.0208 303.25 46.8125C299.75 47.6042 296.958 48.625 294.875 49.875C292.792 51.0833 291.333 52.4583 290.5 54C289.708 55.5 289.312 57 289.312 58.5C289.312 61.4167 290.625 63.8125 293.25 65.6875C295.875 67.5208 299.875 68.4375 305.25 68.4375C307.417 68.4375 309.896 68.2917 312.688 68C315.521 67.6667 318.479 67.3125 321.562 66.9375C324.688 66.5625 327.854 66.2292 331.062 65.9375C334.312 65.6042 337.458 65.4375 340.5 65.4375C346.25 65.4375 351.333 66.0833 355.75 67.375C360.208 68.6667 363.938 70.5208 366.938 72.9375C369.938 75.3125 372.208 78.2083 373.75 81.625C375.292 85 376.062 88.7917 376.062 93C376.062 98.625 374.75 103.646 372.125 108.062C369.542 112.438 365.833 116.146 361 119.188C356.208 122.188 350.417 124.479 343.625 126.062C336.833 127.604 329.271 128.375 320.938 128.375C315.438 128.375 310.062 128.021 304.812 127.312C299.562 126.646 294.521 125.688 289.688 124.438C284.896 123.146 280.312 121.625 275.938 119.875C271.604 118.083 267.583 116.125 263.875 114L274.438 97.9375ZM402.438 97.9375C405.979 99.9375 409.562 101.75 413.188 103.375C416.854 104.958 420.646 106.312 424.562 107.438C428.479 108.521 432.583 109.354 436.875 109.938C441.208 110.521 445.812 110.812 450.688 110.812C456.562 110.812 461.562 110.438 465.688 109.688C469.812 108.896 473.167 107.833 475.75 106.5C478.375 105.125 480.271 103.5 481.438 101.625C482.646 99.75 483.25 97.7083 483.25 95.5C483.25 91.9583 481.771 89.1667 478.812 87.125C475.854 85.0417 471.292 84 465.125 84C462.417 84 459.562 84.1875 456.562 84.5625C453.562 84.8958 450.521 85.2708 447.438 85.6875C444.396 86.1042 441.375 86.5 438.375 86.875C435.417 87.2083 432.625 87.375 430 87.375C425.625 87.375 421.417 86.8125 417.375 85.6875C413.375 84.5625 409.812 82.875 406.688 80.625C403.604 78.375 401.146 75.5625 399.312 72.1875C397.479 68.8125 396.562 64.875 396.562 60.375C396.562 57.7083 396.917 55.0625 397.625 52.4375C398.375 49.8125 399.542 47.3125 401.125 44.9375C402.75 42.5208 404.833 40.2917 407.375 38.25C409.917 36.1667 412.979 34.375 416.562 32.875C420.188 31.375 424.354 30.2083 429.062 29.375C433.812 28.5 439.208 28.0625 445.25 28.0625C449.625 28.0625 454.021 28.3125 458.438 28.8125C462.854 29.2708 467.146 29.9375 471.312 30.8125C475.521 31.6875 479.562 32.75 483.438 34C487.312 35.2083 490.917 36.5625 494.25 38.0625L485.562 54.0625C482.812 52.8542 479.854 51.75 476.688 50.75C473.521 49.7083 470.208 48.8125 466.75 48.0625C463.292 47.3125 459.708 46.7292 456 46.3125C452.333 45.8542 448.583 45.625 444.75 45.625C439.292 45.625 434.792 46.0208 431.25 46.8125C427.75 47.6042 424.958 48.625 422.875 49.875C420.792 51.0833 419.333 52.4583 418.5 54C417.708 55.5 417.312 57 417.312 58.5C417.312 61.4167 418.625 63.8125 421.25 65.6875C423.875 67.5208 427.875 68.4375 433.25 68.4375C435.417 68.4375 437.896 68.2917 440.688 68C443.521 67.6667 446.479 67.3125 449.562 66.9375C452.688 66.5625 455.854 66.2292 459.062 65.9375C462.312 65.6042 465.458 65.4375 468.5 65.4375C474.25 65.4375 479.333 66.0833 483.75 67.375C488.208 68.6667 491.938 70.5208 494.938 72.9375C497.938 75.3125 500.208 78.2083 501.75 81.625C503.292 85 504.062 88.7917 504.062 93C504.062 98.625 502.75 103.646 500.125 108.062C497.542 112.438 493.833 116.146 489 119.188C484.208 122.188 478.417 124.479 471.625 126.062C464.833 127.604 457.271 128.375 448.938 128.375C443.438 128.375 438.062 128.021 432.812 127.312C427.562 126.646 422.521 125.688 417.688 124.438C412.896 123.146 408.312 121.625 403.938 119.875C399.604 118.083 395.583 116.125 391.875 114L402.438 97.9375ZM520.125 77.875C520.125 70.5 521.479 63.75 524.188 57.625C526.896 51.5 530.688 46.25 535.562 41.875C540.479 37.4583 546.354 34.0417 553.188 31.625C560.062 29.2083 567.667 28 576 28C584.292 28 591.875 29.2083 598.75 31.625C605.625 34.0417 611.5 37.4583 616.375 41.875C621.292 46.25 625.104 51.5 627.812 57.625C630.521 63.75 631.875 70.5 631.875 77.875C631.875 85.2917 630.521 92.1042 627.812 98.3125C625.104 104.479 621.292 109.792 616.375 114.25C611.5 118.708 605.625 122.188 598.75 124.688C591.875 127.146 584.292 128.375 576 128.375C567.667 128.375 560.062 127.146 553.188 124.688C546.354 122.188 540.479 118.708 535.562 114.25C530.688 109.792 526.896 104.479 524.188 98.3125C521.479 92.1042 520.125 85.2917 520.125 77.875ZM539.938 77.875C539.938 82.9167 540.833 87.4583 542.625 91.5C544.458 95.5417 546.979 99 550.188 101.875C553.438 104.708 557.25 106.896 561.625 108.438C566.042 109.979 570.833 110.75 576 110.75C581.167 110.75 585.938 109.979 590.312 108.438C594.729 106.896 598.542 104.708 601.75 101.875C604.958 99 607.479 95.5417 609.312 91.5C611.146 87.4583 612.062 82.9167 612.062 77.875C612.062 72.8333 611.146 68.3125 609.312 64.3125C607.479 60.3125 604.958 56.9375 601.75 54.1875C598.542 51.3958 594.729 49.2708 590.312 47.8125C585.938 46.3542 581.167 45.625 576 45.625C570.833 45.625 566.042 46.3542 561.625 47.8125C557.25 49.2708 553.438 51.3958 550.188 54.1875C546.979 56.9375 544.458 60.3125 542.625 64.3125C540.833 68.3125 539.938 72.8333 539.938 77.875ZM658.438 97.9375C661.979 99.9375 665.562 101.75 669.188 103.375C672.854 104.958 676.646 106.312 680.562 107.438C684.479 108.521 688.583 109.354 692.875 109.938C697.208 110.521 701.812 110.812 706.688 110.812C712.562 110.812 717.562 110.438 721.688 109.688C725.812 108.896 729.167 107.833 731.75 106.5C734.375 105.125 736.271 103.5 737.438 101.625C738.646 99.75 739.25 97.7083 739.25 95.5C739.25 91.9583 737.771 89.1667 734.812 87.125C731.854 85.0417 727.292 84 721.125 84C718.417 84 715.562 84.1875 712.562 84.5625C709.562 84.8958 706.521 85.2708 703.438 85.6875C700.396 86.1042 697.375 86.5 694.375 86.875C691.417 87.2083 688.625 87.375 686 87.375C681.625 87.375 677.417 86.8125 673.375 85.6875C669.375 84.5625 665.812 82.875 662.688 80.625C659.604 78.375 657.146 75.5625 655.312 72.1875C653.479 68.8125 652.562 64.875 652.562 60.375C652.562 57.7083 652.917 55.0625 653.625 52.4375C654.375 49.8125 655.542 47.3125 657.125 44.9375C658.75 42.5208 660.833 40.2917 663.375 38.25C665.917 36.1667 668.979 34.375 672.562 32.875C676.188 31.375 680.354 30.2083 685.062 29.375C689.812 28.5 695.208 28.0625 701.25 28.0625C705.625 28.0625 710.021 28.3125 714.438 28.8125C718.854 29.2708 723.146 29.9375 727.312 30.8125C731.521 31.6875 735.562 32.75 739.438 34C743.312 35.2083 746.917 36.5625 750.25 38.0625L741.562 54.0625C738.812 52.8542 735.854 51.75 732.688 50.75C729.521 49.7083 726.208 48.8125 722.75 48.0625C719.292 47.3125 715.708 46.7292 712 46.3125C708.333 45.8542 704.583 45.625 700.75 45.625C695.292 45.625 690.792 46.0208 687.25 46.8125C683.75 47.6042 680.958 48.625 678.875 49.875C676.792 51.0833 675.333 52.4583 674.5 54C673.708 55.5 673.312 57 673.312 58.5C673.312 61.4167 674.625 63.8125 677.25 65.6875C679.875 67.5208 683.875 68.4375 689.25 68.4375C691.417 68.4375 693.896 68.2917 696.688 68C699.521 67.6667 702.479 67.3125 705.562 66.9375C708.688 66.5625 711.854 66.2292 715.062 65.9375C718.312 65.6042 721.458 65.4375 724.5 65.4375C730.25 65.4375 735.333 66.0833 739.75 67.375C744.208 68.6667 747.938 70.5208 750.938 72.9375C753.938 75.3125 756.208 78.2083 757.75 81.625C759.292 85 760.062 88.7917 760.062 93C760.062 98.625 758.75 103.646 756.125 108.062C753.542 112.438 749.833 116.146 745 119.188C740.208 122.188 734.417 124.479 727.625 126.062C720.833 127.604 713.271 128.375 704.938 128.375C699.438 128.375 694.062 128.021 688.812 127.312C683.562 126.646 678.521 125.688 673.688 124.438C668.896 123.146 664.312 121.625 659.938 119.875C655.604 118.083 651.583 116.125 647.875 114L658.438 97.9375Z" fill="#00661D"/>
<path d="M768.812 62.3125H790.75L821.438 136.812L852.125 62.3125H874.062L831.25 160H811.625L768.812 62.3125ZM922.062 62.3125H943.062L990.312 160H969.5L961.688 143.562H904.625L897.062 160H876.188L922.062 62.3125ZM953.875 127.25L932.75 82.875L912.188 127.25H953.875ZM1005.5 62.3125H1025.31V142.625H1082.12V160H1005.5V62.3125ZM1095.62 110.875C1095.62 103.5 1096.98 96.75 1099.69 90.625C1102.4 84.5 1106.19 79.25 1111.06 74.875C1115.98 70.4583 1121.85 67.0417 1128.69 64.625C1135.56 62.2083 1143.17 61 1151.5 61C1159.79 61 1167.38 62.2083 1174.25 64.625C1181.12 67.0417 1187 70.4583 1191.88 74.875C1196.79 79.25 1200.6 84.5 1203.31 90.625C1206.02 96.75 1207.38 103.5 1207.38 110.875C1207.38 118.292 1206.02 125.104 1203.31 131.312C1200.6 137.479 1196.79 142.792 1191.88 147.25C1187 151.708 1181.12 155.188 1174.25 157.688C1167.38 160.146 1159.79 161.375 1151.5 161.375C1143.17 161.375 1135.56 160.146 1128.69 157.688C1121.85 155.188 1115.98 151.708 1111.06 147.25C1106.19 142.792 1102.4 137.479 1099.69 131.312C1096.98 125.104 1095.62 118.292 1095.62 110.875ZM1115.44 110.875C1115.44 115.917 1116.33 120.458 1118.12 124.5C1119.96 128.542 1122.48 132 1125.69 134.875C1128.94 137.708 1132.75 139.896 1137.12 141.438C1141.54 142.979 1146.33 143.75 1151.5 143.75C1156.67 143.75 1161.44 142.979 1165.81 141.438C1170.23 139.896 1174.04 137.708 1177.25 134.875C1180.46 132 1182.98 128.542 1184.81 124.5C1186.65 120.458 1187.56 115.917 1187.56 110.875C1187.56 105.833 1186.65 101.312 1184.81 97.3125C1182.98 93.3125 1180.46 89.9375 1177.25 87.1875C1174.04 84.3958 1170.23 82.2708 1165.81 80.8125C1161.44 79.3542 1156.67 78.625 1151.5 78.625C1146.33 78.625 1141.54 79.3542 1137.12 80.8125C1132.75 82.2708 1128.94 84.3958 1125.69 87.1875C1122.48 89.9375 1119.96 93.3125 1118.12 97.3125C1116.33 101.312 1115.44 105.833 1115.44 110.875ZM1229.38 62.3125H1279.06C1286.56 62.3125 1293.06 63.1042 1298.56 64.6875C1304.06 66.2292 1308.62 68.4792 1312.25 71.4375C1315.88 74.3958 1318.56 78 1320.31 82.25C1322.1 86.5 1323 91.3125 1323 96.6875C1323 100.312 1322.56 103.771 1321.69 107.062C1320.81 110.312 1319.46 113.312 1317.62 116.062C1315.83 118.812 1313.56 121.271 1310.81 123.438C1308.06 125.562 1304.83 127.333 1301.12 128.75L1322.38 160H1298.12L1279.75 132.25H1279.19L1249.19 132.188V160H1229.38V62.3125ZM1279.56 115.062C1283.31 115.062 1286.58 114.625 1289.38 113.75C1292.21 112.875 1294.56 111.646 1296.44 110.062C1298.35 108.479 1299.77 106.562 1300.69 104.312C1301.65 102.021 1302.12 99.4792 1302.12 96.6875C1302.12 91.2292 1300.25 87.0208 1296.5 84.0625C1292.75 81.0625 1287.1 79.5625 1279.56 79.5625H1249.19V115.062H1279.56ZM1346.5 62.3125H1429.69V79.6875H1366.31V99.1875H1422.44V115.5H1366.31V142.688H1431V160H1346.5V62.3125ZM1457.56 130.938C1461.1 132.938 1464.69 134.75 1468.31 136.375C1471.98 137.958 1475.77 139.312 1479.69 140.438C1483.6 141.521 1487.71 142.354 1492 142.938C1496.33 143.521 1500.94 143.812 1505.81 143.812C1511.69 143.812 1516.69 143.438 1520.81 142.688C1524.94 141.896 1528.29 140.833 1530.88 139.5C1533.5 138.125 1535.4 136.5 1536.56 134.625C1537.77 132.75 1538.38 130.708 1538.38 128.5C1538.38 124.958 1536.9 122.167 1533.94 120.125C1530.98 118.042 1526.42 117 1520.25 117C1517.54 117 1514.69 117.188 1511.69 117.562C1508.69 117.896 1505.65 118.271 1502.56 118.688C1499.52 119.104 1496.5 119.5 1493.5 119.875C1490.54 120.208 1487.75 120.375 1485.12 120.375C1480.75 120.375 1476.54 119.812 1472.5 118.688C1468.5 117.562 1464.94 115.875 1461.81 113.625C1458.73 111.375 1456.27 108.562 1454.44 105.188C1452.6 101.812 1451.69 97.875 1451.69 93.375C1451.69 90.7083 1452.04 88.0625 1452.75 85.4375C1453.5 82.8125 1454.67 80.3125 1456.25 77.9375C1457.88 75.5208 1459.96 73.2917 1462.5 71.25C1465.04 69.1667 1468.1 67.375 1471.69 65.875C1475.31 64.375 1479.48 63.2083 1484.19 62.375C1488.94 61.5 1494.33 61.0625 1500.38 61.0625C1504.75 61.0625 1509.15 61.3125 1513.56 61.8125C1517.98 62.2708 1522.27 62.9375 1526.44 63.8125C1530.65 64.6875 1534.69 65.75 1538.56 67C1542.44 68.2083 1546.04 69.5625 1549.38 71.0625L1540.69 87.0625C1537.94 85.8542 1534.98 84.75 1531.81 83.75C1528.65 82.7083 1525.33 81.8125 1521.88 81.0625C1518.42 80.3125 1514.83 79.7292 1511.12 79.3125C1507.46 78.8542 1503.71 78.625 1499.88 78.625C1494.42 78.625 1489.92 79.0208 1486.38 79.8125C1482.88 80.6042 1480.08 81.625 1478 82.875C1475.92 84.0833 1474.46 85.4583 1473.62 87C1472.83 88.5 1472.44 90 1472.44 91.5C1472.44 94.4167 1473.75 96.8125 1476.38 98.6875C1479 100.521 1483 101.438 1488.38 101.438C1490.54 101.438 1493.02 101.292 1495.81 101C1498.65 100.667 1501.6 100.312 1504.69 99.9375C1507.81 99.5625 1510.98 99.2292 1514.19 98.9375C1517.44 98.6042 1520.58 98.4375 1523.62 98.4375C1529.38 98.4375 1534.46 99.0833 1538.88 100.375C1543.33 101.667 1547.06 103.521 1550.06 105.938C1553.06 108.312 1555.33 111.208 1556.88 114.625C1558.42 118 1559.19 121.792 1559.19 126C1559.19 131.625 1557.88 136.646 1555.25 141.062C1552.67 145.438 1548.96 149.146 1544.12 152.188C1539.33 155.188 1533.54 157.479 1526.75 159.062C1519.96 160.604 1512.4 161.375 1504.06 161.375C1498.56 161.375 1493.19 161.021 1487.94 160.312C1482.69 159.646 1477.65 158.688 1472.81 157.438C1468.02 156.146 1463.44 154.625 1459.06 152.875C1454.73 151.083 1450.71 149.125 1447 147L1457.56 130.938Z" fill="#00661D"/>
</svg>
