<svg width="192" height="97" viewBox="0 0 192 97" fill="none" xmlns="http://www.w3.org/2000/svg">
<path d="M0.811523 96.0178V83.5037C0.811523 77.8095 3.72485 73.1747 9.5515 69.5992C15.3781 66.0238 23.0587 64.236 32.5932 64.236C34.3148 64.236 35.9701 64.2692 37.5591 64.3354C39.1482 64.4016 40.6711 64.5671 42.1278 64.832C40.2738 67.6129 38.8834 70.5262 37.9564 73.5719C37.0294 76.6177 36.566 79.7959 36.566 83.1064V96.0178H0.811523ZM48.4841 96.0178V83.1064C48.4841 78.8689 49.6428 74.9955 51.9602 71.4863C54.2776 67.977 57.5551 64.8982 61.7927 62.2497C66.0303 59.6012 71.0955 57.6149 76.9883 56.2906C82.8812 54.9664 89.2706 54.3043 96.1567 54.3043C103.175 54.3043 109.631 54.9664 115.524 56.2906C121.417 57.6149 126.482 59.6012 130.719 62.2497C134.957 64.8982 138.201 67.977 140.452 71.4863C142.704 74.9955 143.829 78.8689 143.829 83.1064V96.0178H48.4841ZM155.747 96.0178V83.1064C155.747 79.6634 155.317 76.419 154.456 73.3733C153.596 70.3276 152.304 67.4804 150.583 64.832C152.04 64.5671 153.529 64.4016 155.052 64.3354C156.575 64.2692 158.131 64.236 159.72 64.236C169.255 64.236 176.935 65.9907 182.762 69.4999C188.589 73.0091 191.502 77.6771 191.502 83.5037V96.0178H155.747ZM65.3681 80.1269H127.144C125.82 77.4784 122.145 75.161 116.12 73.1747C110.094 71.1883 103.44 70.1951 96.1567 70.1951C88.8734 70.1951 82.2191 71.1883 76.1938 73.1747C70.1685 75.161 66.56 77.4784 65.3681 80.1269ZM32.5932 56.2906C28.2233 56.2906 24.4823 54.7346 21.3703 51.6227C18.2584 48.5107 16.7024 44.7697 16.7024 40.3998C16.7024 35.8973 18.2584 32.1233 21.3703 29.0775C24.4823 26.0318 28.2233 24.5089 32.5932 24.5089C37.0957 24.5089 40.8697 26.0318 43.9155 29.0775C46.9612 32.1233 48.4841 35.8973 48.4841 40.3998C48.4841 44.7697 46.9612 48.5107 43.9155 51.6227C40.8697 54.7346 37.0957 56.2906 32.5932 56.2906ZM159.72 56.2906C155.35 56.2906 151.609 54.7346 148.497 51.6227C145.385 48.5107 143.829 44.7697 143.829 40.3998C143.829 35.8973 145.385 32.1233 148.497 29.0775C151.609 26.0318 155.35 24.5089 159.72 24.5089C164.223 24.5089 167.997 26.0318 171.042 29.0775C174.088 32.1233 175.611 35.8973 175.611 40.3998C175.611 44.7697 174.088 48.5107 171.042 51.6227C167.997 54.7346 164.223 56.2906 159.72 56.2906ZM96.1567 48.3452C89.5355 48.3452 83.9075 46.0278 79.2726 41.3929C74.6378 36.7581 72.3204 31.1301 72.3204 24.5089C72.3204 17.7553 74.6378 12.0942 79.2726 7.52554C83.9075 2.95692 89.5355 0.672607 96.1567 0.672607C102.91 0.672607 108.571 2.95692 113.14 7.52554C117.709 12.0942 119.993 17.7553 119.993 24.5089C119.993 31.1301 117.709 36.7581 113.14 41.3929C108.571 46.0278 102.91 48.3452 96.1567 48.3452ZM96.1567 32.4543C98.4079 32.4543 100.295 31.6929 101.818 30.17C103.341 28.6471 104.102 26.7601 104.102 24.5089C104.102 22.2577 103.341 20.3707 101.818 18.8478C100.295 17.3249 98.4079 16.5635 96.1567 16.5635C93.9055 16.5635 92.0184 17.3249 90.4956 18.8478C88.9727 20.3707 88.2113 22.2577 88.2113 24.5089C88.2113 26.7601 88.9727 28.6471 90.4956 30.17C92.0184 31.6929 93.9055 32.4543 96.1567 32.4543Z" fill="#00661D"/>
</svg>
