<svg width="118" height="107" viewBox="0 0 118 107" fill="none" xmlns="http://www.w3.org/2000/svg">
<path d="M58.6965 96.1519C59.0504 96.1519 59.4042 96.0635 59.758 95.8866C60.1119 95.7096 60.3772 95.5327 60.5542 95.3558L104.076 51.8335C105.138 50.772 105.912 49.5778 106.399 48.2509C106.885 46.924 107.128 45.5971 107.128 44.2702C107.128 42.8548 106.885 41.5058 106.399 40.2232C105.912 38.9405 105.138 37.8126 104.076 36.8396L81.5192 14.2823C80.5461 13.2208 79.4182 12.4467 78.1356 11.9602C76.8529 11.4737 75.5039 11.2304 74.0885 11.2304C72.7616 11.2304 71.4347 11.4737 70.1078 11.9602C68.7809 12.4467 67.5867 13.2208 66.5252 14.2823L65.0656 15.7419L74.8847 25.6936C76.2116 26.9321 77.1846 28.3474 77.8039 29.9397C78.4231 31.532 78.7327 33.2127 78.7327 34.9819C78.7327 38.6972 77.4721 41.8154 74.951 44.3365C72.4299 46.8577 69.3117 48.1182 65.5964 48.1182C63.8272 48.1182 62.1243 47.8086 60.4878 47.1894C58.8513 46.5702 57.4138 45.6413 56.1754 44.4029L46.2237 34.5838L23.0029 57.8046C22.7376 58.0699 22.5385 58.3574 22.4058 58.667C22.2731 58.9767 22.2068 59.3084 22.2068 59.6622C22.2068 60.3699 22.4722 61.0112 23.0029 61.5862C23.5337 62.1612 24.1529 62.4487 24.8606 62.4487C25.2144 62.4487 25.5683 62.3602 25.9221 62.1833C26.276 62.0064 26.5413 61.8295 26.7183 61.6526L44.7641 43.6068L52.1947 51.0374L34.2816 69.0832C34.0162 69.3486 33.8172 69.6361 33.6845 69.9457C33.5518 70.2553 33.4854 70.587 33.4854 70.9409C33.4854 71.6485 33.7508 72.2678 34.2816 72.7985C34.8123 73.3293 35.4315 73.5947 36.1392 73.5947C36.4931 73.5947 36.8469 73.5062 37.2007 73.3293C37.5546 73.1524 37.82 72.9754 37.9969 72.7985L56.0427 54.8854L63.4733 62.316L45.5602 80.3618C45.2948 80.5388 45.0958 80.8041 44.9631 81.158C44.8304 81.5118 44.7641 81.8657 44.7641 82.2195C44.7641 82.9272 45.0295 83.5464 45.5602 84.0772C46.091 84.6079 46.7102 84.8733 47.4179 84.8733C47.7717 84.8733 48.1034 84.807 48.413 84.6743C48.7227 84.5416 49.0101 84.3425 49.2755 84.0772L67.3214 66.164L74.752 73.5947L56.7062 91.6405C56.4408 91.9059 56.2417 92.1934 56.1091 92.503C55.9764 92.8126 55.91 93.1443 55.91 93.4981C55.91 94.2058 56.1975 94.825 56.7725 95.3558C57.3475 95.8866 57.9888 96.1519 58.6965 96.1519ZM58.5638 106.767C55.2908 106.767 52.3937 105.683 49.8726 103.516C47.3515 101.349 45.8698 98.6288 45.4275 95.3558C42.4199 94.9135 39.8988 93.675 37.8642 91.6405C35.8296 89.6059 34.5912 87.0848 34.1489 84.0772C31.1412 83.6349 28.6423 82.3743 26.6519 80.2955C24.6616 78.2167 23.4452 75.7177 23.0029 72.7985C19.6415 72.3562 16.8992 70.8966 14.7762 68.4198C12.6531 65.9429 11.5916 63.0237 11.5916 59.6622C11.5916 57.893 11.9233 56.1902 12.5868 54.5537C13.2502 52.9172 14.2012 51.4797 15.4396 50.2412L46.2237 19.5899L63.606 36.9723C63.783 37.2376 64.0483 37.4367 64.4022 37.5694C64.756 37.702 65.1099 37.7684 65.4637 37.7684C66.2598 37.7684 66.9233 37.5251 67.454 37.0386C67.9848 36.5521 68.2502 35.9107 68.2502 35.1146C68.2502 34.7608 68.1838 34.4069 68.0511 34.0531C67.9185 33.6992 67.7194 33.4339 67.454 33.2569L48.4794 14.2823C47.5063 13.2208 46.3785 12.4467 45.0958 11.9602C43.8131 11.4737 42.4641 11.2304 41.0488 11.2304C39.7219 11.2304 38.395 11.4737 37.0681 11.9602C35.7412 12.4467 34.547 13.2208 33.4854 14.2823L14.7762 33.1242C13.98 33.9204 13.3166 34.8492 12.7858 35.9107C12.2551 36.9723 11.9012 38.0338 11.7243 39.0953C11.5474 40.1568 11.5474 41.2404 11.7243 42.3462C11.9012 43.4519 12.2551 44.4913 12.7858 45.4644L5.0898 53.1604C3.58598 51.1258 2.48023 48.8922 1.77256 46.4596C1.06488 44.0269 0.799496 41.5722 0.976416 39.0953C1.15334 36.6184 1.77255 34.2079 2.83407 31.8637C3.89559 29.5195 5.35518 27.4186 7.21284 25.5609L25.9221 6.85166C28.0451 4.81708 30.4115 3.26903 33.021 2.20751C35.6306 1.14599 38.3065 0.615234 41.0488 0.615234C43.791 0.615234 46.4669 1.14599 49.0765 2.20751C51.6861 3.26903 54.0081 4.81708 56.0427 6.85166L57.5023 8.31125L58.9619 6.85166C61.0849 4.81708 63.4512 3.26903 66.0608 2.20751C68.6704 1.14599 71.3463 0.615234 74.0885 0.615234C76.8308 0.615234 79.5067 1.14599 82.1163 2.20751C84.7258 3.26903 87.0479 4.81708 89.0825 6.85166L111.507 29.2762C113.542 31.3108 115.09 33.655 116.151 36.3088C117.213 38.9626 117.743 41.6606 117.743 44.4029C117.743 47.1451 117.213 49.8211 116.151 52.4306C115.09 55.0402 113.542 57.3623 111.507 59.3968L67.9848 102.786C66.7464 104.025 65.3089 104.998 63.6724 105.706C62.0359 106.413 60.333 106.767 58.5638 106.767Z" fill="#00661D"/>
</svg>
