<svg width="122" height="135" viewBox="0 0 122 135" fill="none" xmlns="http://www.w3.org/2000/svg">
<path d="M61.0863 134.226C52.6839 134.226 44.7876 132.632 37.3975 129.443C30.0074 126.254 23.579 121.926 18.1123 116.46C12.6457 110.993 8.31791 104.565 5.12903 97.1744C1.94014 89.7843 0.345703 81.888 0.345703 73.4856C0.345703 61.9448 3.35743 51.2899 9.38087 41.5208C15.4043 31.7517 23.579 24.2856 33.9049 19.1227C34.0061 21.0461 34.2086 22.9949 34.5123 24.969C34.816 26.9431 35.3222 29.2461 36.0308 31.8782C28.7419 36.3325 22.9969 42.2294 18.7957 49.5689C14.5944 56.9084 12.4938 64.8806 12.4938 73.4856C12.4938 87.051 17.2012 98.5411 26.616 107.956C36.0308 117.371 47.5209 122.078 61.0863 122.078C74.6518 122.078 86.1419 117.371 95.5567 107.956C104.971 98.5411 109.679 87.051 109.679 73.4856C109.679 64.8806 107.578 56.8831 103.377 49.493C99.1758 42.1029 93.3801 36.1807 85.99 31.7264C86.6986 29.0943 87.2048 26.7912 87.5085 24.8171C87.8122 22.8431 88.0653 20.9449 88.2678 19.1227C98.5937 24.2856 106.768 31.7264 112.792 41.4449C118.815 51.1634 121.827 61.8436 121.827 73.4856C121.827 81.888 120.233 89.7843 117.044 97.1744C113.855 104.565 109.527 110.993 104.06 116.46C98.5937 121.926 92.1653 126.254 84.7752 129.443C77.3851 132.632 69.4888 134.226 61.0863 134.226ZM61.0863 109.93C50.9629 109.93 42.358 106.387 35.2716 99.3003C28.1852 92.2139 24.642 83.609 24.642 73.4856C24.642 67.614 25.9327 62.0967 28.5142 56.9337C31.0957 51.7708 34.7654 47.4683 39.5234 44.0264C40.0296 45.5449 40.5864 47.2912 41.1938 49.2652C41.8012 51.2393 42.6111 53.6942 43.6234 56.63C41.3963 58.9584 39.7006 61.5399 38.5364 64.3745C37.3722 67.209 36.7901 70.2461 36.7901 73.4856C36.7901 80.167 39.1691 85.8868 43.9271 90.6448C48.6851 95.4028 54.4049 97.7818 61.0863 97.7818C67.7678 97.7818 73.4876 95.4028 78.2456 90.6448C83.0036 85.8868 85.3826 80.167 85.3826 73.4856C85.3826 70.2461 84.8005 67.209 83.6363 64.3745C82.4721 61.5399 80.7764 58.9584 78.5493 56.63C79.3591 54.2004 80.0931 51.9479 80.7511 49.8726C81.4091 47.7973 81.9912 45.8486 82.4974 44.0264C87.2554 47.4683 90.9505 51.7708 93.5826 56.9337C96.2147 62.0967 97.5307 67.614 97.5307 73.4856C97.5307 83.609 93.9875 92.2139 86.9011 99.3003C79.8147 106.387 71.2098 109.93 61.0863 109.93ZM55.0123 52.2263C51.2666 40.8881 48.8117 32.9159 47.6475 28.3097C46.4833 23.7036 45.9012 19.5276 45.9012 15.782C45.9012 11.5301 47.3691 7.9363 50.3049 5.0005C53.2407 2.0647 56.8345 0.596802 61.0863 0.596802C65.3382 0.596802 68.932 2.0647 71.8678 5.0005C74.8036 7.9363 76.2715 11.5301 76.2715 15.782C76.2715 19.5276 75.6894 23.7036 74.5252 28.3097C73.361 32.9159 70.9061 40.8881 67.1604 52.2263H55.0123ZM61.0863 85.6337C57.7456 85.6337 54.8857 84.4442 52.5067 82.0652C50.1277 79.6862 48.9382 76.8263 48.9382 73.4856C48.9382 70.1448 50.1277 67.285 52.5067 64.906C54.8857 62.5269 57.7456 61.3374 61.0863 61.3374C64.4271 61.3374 67.2869 62.5269 69.666 64.906C72.045 67.285 73.2345 70.1448 73.2345 73.4856C73.2345 76.8263 72.045 79.6862 69.666 82.0652C67.2869 84.4442 64.4271 85.6337 61.0863 85.6337Z" fill="#00661D"/>
</svg>
