<svg width="2367" height="2271" viewBox="0 0 2367 2271" fill="none" xmlns="http://www.w3.org/2000/svg">
<g filter="url(#filter0_ddddii_692_4)">
<path fill-rule="evenodd" clip-rule="evenodd" d="M1788.89 18L701.03 560.583L799.926 751.888L17 1127.9L120.841 1350.54L476.866 1177.38L447.197 2028.36L554.335 2251L1648.78 1729.86L1549.89 1533.6L2346 1132.85L2235.57 916.807L1882.84 1093.27L1897.67 238.991L1788.89 18ZM1119.69 631.498L1661.97 359.382L1648.78 1210.36L1151.01 1456.09L1246.61 1649.05L684.548 1919.51L714.217 1066.88L1215.29 827.751L1119.69 631.498Z" fill="#E8EEF6"/>
<path d="M1661.97 359.382L1119.69 631.498L1215.29 827.751L714.217 1066.88L684.548 1919.51L1246.61 1649.05L1151.01 1456.09L1648.78 1210.36L1661.97 359.382Z" fill="#E8EEF6"/>
<path fill-rule="evenodd" clip-rule="evenodd" d="M1788.89 18L701.03 560.583L799.926 751.888L17 1127.9L120.841 1350.54L476.866 1177.38L447.197 2028.36L554.335 2251L1648.78 1729.86L1549.89 1533.6L2346 1132.85L2235.57 916.807L1882.84 1093.27L1897.67 238.991L1788.89 18ZM1119.69 631.498L1661.97 359.382L1648.78 1210.36L1151.01 1456.09L1246.61 1649.05L684.548 1919.51L714.217 1066.88L1215.29 827.751L1119.69 631.498Z" stroke="#00661D" stroke-opacity="0.17" stroke-width="3"/>
<path d="M1661.97 359.382L1119.69 631.498L1215.29 827.751L714.217 1066.88L684.548 1919.51L1246.61 1649.05L1151.01 1456.09L1648.78 1210.36L1661.97 359.382Z" stroke="#00661D" stroke-opacity="0.17" stroke-width="3"/>
</g>
<path d="M407.75 311.312H427.562L488.438 343.188V311.312H508.25V409H488.438V364.188L427.562 332.5V409H407.75V311.312ZM530.125 359.875C530.125 352.5 531.479 345.75 534.188 339.625C536.896 333.5 540.688 328.25 545.562 323.875C550.479 319.458 556.354 316.042 563.188 313.625C570.062 311.208 577.667 310 586 310C594.292 310 601.875 311.208 608.75 313.625C615.625 316.042 621.5 319.458 626.375 323.875C631.292 328.25 635.104 333.5 637.812 339.625C640.521 345.75 641.875 352.5 641.875 359.875C641.875 367.292 640.521 374.104 637.812 380.312C635.104 386.479 631.292 391.792 626.375 396.25C621.5 400.708 615.625 404.188 608.75 406.688C601.875 409.146 594.292 410.375 586 410.375C577.667 410.375 570.062 409.146 563.188 406.688C556.354 404.188 550.479 400.708 545.562 396.25C540.688 391.792 536.896 386.479 534.188 380.312C531.479 374.104 530.125 367.292 530.125 359.875ZM549.938 359.875C549.938 364.917 550.833 369.458 552.625 373.5C554.458 377.542 556.979 381 560.188 383.875C563.438 386.708 567.25 388.896 571.625 390.438C576.042 391.979 580.833 392.75 586 392.75C591.167 392.75 595.938 391.979 600.312 390.438C604.729 388.896 608.542 386.708 611.75 383.875C614.958 381 617.479 377.542 619.312 373.5C621.146 369.458 622.062 364.917 622.062 359.875C622.062 354.833 621.146 350.312 619.312 346.312C617.479 342.312 614.958 338.938 611.75 336.188C608.542 333.396 604.729 331.271 600.312 329.812C595.938 328.354 591.167 327.625 586 327.625C580.833 327.625 576.042 328.354 571.625 329.812C567.25 331.271 563.438 333.396 560.188 336.188C556.979 338.938 554.458 342.312 552.625 346.312C550.833 350.312 549.938 354.833 549.938 359.875ZM668.438 379.938C671.979 381.938 675.562 383.75 679.188 385.375C682.854 386.958 686.646 388.312 690.562 389.438C694.479 390.521 698.583 391.354 702.875 391.938C707.208 392.521 711.812 392.812 716.688 392.812C722.562 392.812 727.562 392.438 731.688 391.688C735.812 390.896 739.167 389.833 741.75 388.5C744.375 387.125 746.271 385.5 747.438 383.625C748.646 381.75 749.25 379.708 749.25 377.5C749.25 373.958 747.771 371.167 744.812 369.125C741.854 367.042 737.292 366 731.125 366C728.417 366 725.562 366.188 722.562 366.562C719.562 366.896 716.521 367.271 713.438 367.688C710.396 368.104 707.375 368.5 704.375 368.875C701.417 369.208 698.625 369.375 696 369.375C691.625 369.375 687.417 368.812 683.375 367.688C679.375 366.562 675.812 364.875 672.688 362.625C669.604 360.375 667.146 357.562 665.312 354.188C663.479 350.812 662.562 346.875 662.562 342.375C662.562 339.708 662.917 337.062 663.625 334.438C664.375 331.812 665.542 329.312 667.125 326.938C668.75 324.521 670.833 322.292 673.375 320.25C675.917 318.167 678.979 316.375 682.562 314.875C686.188 313.375 690.354 312.208 695.062 311.375C699.812 310.5 705.208 310.062 711.25 310.062C715.625 310.062 720.021 310.312 724.438 310.812C728.854 311.271 733.146 311.938 737.312 312.812C741.521 313.688 745.562 314.75 749.438 316C753.312 317.208 756.917 318.562 760.25 320.062L751.562 336.062C748.812 334.854 745.854 333.75 742.688 332.75C739.521 331.708 736.208 330.812 732.75 330.062C729.292 329.312 725.708 328.729 722 328.312C718.333 327.854 714.583 327.625 710.75 327.625C705.292 327.625 700.792 328.021 697.25 328.812C693.75 329.604 690.958 330.625 688.875 331.875C686.792 333.083 685.333 334.458 684.5 336C683.708 337.5 683.312 339 683.312 340.5C683.312 343.417 684.625 345.812 687.25 347.688C689.875 349.521 693.875 350.438 699.25 350.438C701.417 350.438 703.896 350.292 706.688 350C709.521 349.667 712.479 349.312 715.562 348.938C718.688 348.562 721.854 348.229 725.062 347.938C728.312 347.604 731.458 347.438 734.5 347.438C740.25 347.438 745.333 348.083 749.75 349.375C754.208 350.667 757.938 352.521 760.938 354.938C763.938 357.312 766.208 360.208 767.75 363.625C769.292 367 770.062 370.792 770.062 375C770.062 380.625 768.75 385.646 766.125 390.062C763.542 394.438 759.833 398.146 755 401.188C750.208 404.188 744.417 406.479 737.625 408.062C730.833 409.604 723.271 410.375 714.938 410.375C709.438 410.375 704.062 410.021 698.812 409.312C693.562 408.646 688.521 407.688 683.688 406.438C678.896 405.146 674.312 403.625 669.938 401.875C665.604 400.083 661.583 398.125 657.875 396L668.438 379.938ZM796.438 379.938C799.979 381.938 803.562 383.75 807.188 385.375C810.854 386.958 814.646 388.312 818.562 389.438C822.479 390.521 826.583 391.354 830.875 391.938C835.208 392.521 839.812 392.812 844.688 392.812C850.562 392.812 855.562 392.438 859.688 391.688C863.812 390.896 867.167 389.833 869.75 388.5C872.375 387.125 874.271 385.5 875.438 383.625C876.646 381.75 877.25 379.708 877.25 377.5C877.25 373.958 875.771 371.167 872.812 369.125C869.854 367.042 865.292 366 859.125 366C856.417 366 853.562 366.188 850.562 366.562C847.562 366.896 844.521 367.271 841.438 367.688C838.396 368.104 835.375 368.5 832.375 368.875C829.417 369.208 826.625 369.375 824 369.375C819.625 369.375 815.417 368.812 811.375 367.688C807.375 366.562 803.812 364.875 800.688 362.625C797.604 360.375 795.146 357.562 793.312 354.188C791.479 350.812 790.562 346.875 790.562 342.375C790.562 339.708 790.917 337.062 791.625 334.438C792.375 331.812 793.542 329.312 795.125 326.938C796.75 324.521 798.833 322.292 801.375 320.25C803.917 318.167 806.979 316.375 810.562 314.875C814.188 313.375 818.354 312.208 823.062 311.375C827.812 310.5 833.208 310.062 839.25 310.062C843.625 310.062 848.021 310.312 852.438 310.812C856.854 311.271 861.146 311.938 865.312 312.812C869.521 313.688 873.562 314.75 877.438 316C881.312 317.208 884.917 318.562 888.25 320.062L879.562 336.062C876.812 334.854 873.854 333.75 870.688 332.75C867.521 331.708 864.208 330.812 860.75 330.062C857.292 329.312 853.708 328.729 850 328.312C846.333 327.854 842.583 327.625 838.75 327.625C833.292 327.625 828.792 328.021 825.25 328.812C821.75 329.604 818.958 330.625 816.875 331.875C814.792 333.083 813.333 334.458 812.5 336C811.708 337.5 811.312 339 811.312 340.5C811.312 343.417 812.625 345.812 815.25 347.688C817.875 349.521 821.875 350.438 827.25 350.438C829.417 350.438 831.896 350.292 834.688 350C837.521 349.667 840.479 349.312 843.562 348.938C846.688 348.562 849.854 348.229 853.062 347.938C856.312 347.604 859.458 347.438 862.5 347.438C868.25 347.438 873.333 348.083 877.75 349.375C882.208 350.667 885.938 352.521 888.938 354.938C891.938 357.312 894.208 360.208 895.75 363.625C897.292 367 898.062 370.792 898.062 375C898.062 380.625 896.75 385.646 894.125 390.062C891.542 394.438 887.833 398.146 883 401.188C878.208 404.188 872.417 406.479 865.625 408.062C858.833 409.604 851.271 410.375 842.938 410.375C837.438 410.375 832.062 410.021 826.812 409.312C821.562 408.646 816.521 407.688 811.688 406.438C806.896 405.146 802.312 403.625 797.938 401.875C793.604 400.083 789.583 398.125 785.875 396L796.438 379.938ZM914.125 359.875C914.125 352.5 915.479 345.75 918.188 339.625C920.896 333.5 924.688 328.25 929.562 323.875C934.479 319.458 940.354 316.042 947.188 313.625C954.062 311.208 961.667 310 970 310C978.292 310 985.875 311.208 992.75 313.625C999.625 316.042 1005.5 319.458 1010.38 323.875C1015.29 328.25 1019.1 333.5 1021.81 339.625C1024.52 345.75 1025.88 352.5 1025.88 359.875C1025.88 367.292 1024.52 374.104 1021.81 380.312C1019.1 386.479 1015.29 391.792 1010.38 396.25C1005.5 400.708 999.625 404.188 992.75 406.688C985.875 409.146 978.292 410.375 970 410.375C961.667 410.375 954.062 409.146 947.188 406.688C940.354 404.188 934.479 400.708 929.562 396.25C924.688 391.792 920.896 386.479 918.188 380.312C915.479 374.104 914.125 367.292 914.125 359.875ZM933.938 359.875C933.938 364.917 934.833 369.458 936.625 373.5C938.458 377.542 940.979 381 944.188 383.875C947.438 386.708 951.25 388.896 955.625 390.438C960.042 391.979 964.833 392.75 970 392.75C975.167 392.75 979.938 391.979 984.312 390.438C988.729 388.896 992.542 386.708 995.75 383.875C998.958 381 1001.48 377.542 1003.31 373.5C1005.15 369.458 1006.06 364.917 1006.06 359.875C1006.06 354.833 1005.15 350.312 1003.31 346.312C1001.48 342.312 998.958 338.938 995.75 336.188C992.542 333.396 988.729 331.271 984.312 329.812C979.938 328.354 975.167 327.625 970 327.625C964.833 327.625 960.042 328.354 955.625 329.812C951.25 331.271 947.438 333.396 944.188 336.188C940.979 338.938 938.458 342.312 936.625 346.312C934.833 350.312 933.938 354.833 933.938 359.875ZM1052.44 379.938C1055.98 381.938 1059.56 383.75 1063.19 385.375C1066.85 386.958 1070.65 388.312 1074.56 389.438C1078.48 390.521 1082.58 391.354 1086.88 391.938C1091.21 392.521 1095.81 392.812 1100.69 392.812C1106.56 392.812 1111.56 392.438 1115.69 391.688C1119.81 390.896 1123.17 389.833 1125.75 388.5C1128.38 387.125 1130.27 385.5 1131.44 383.625C1132.65 381.75 1133.25 379.708 1133.25 377.5C1133.25 373.958 1131.77 371.167 1128.81 369.125C1125.85 367.042 1121.29 366 1115.12 366C1112.42 366 1109.56 366.188 1106.56 366.562C1103.56 366.896 1100.52 367.271 1097.44 367.688C1094.4 368.104 1091.38 368.5 1088.38 368.875C1085.42 369.208 1082.62 369.375 1080 369.375C1075.62 369.375 1071.42 368.812 1067.38 367.688C1063.38 366.562 1059.81 364.875 1056.69 362.625C1053.6 360.375 1051.15 357.562 1049.31 354.188C1047.48 350.812 1046.56 346.875 1046.56 342.375C1046.56 339.708 1046.92 337.062 1047.62 334.438C1048.38 331.812 1049.54 329.312 1051.12 326.938C1052.75 324.521 1054.83 322.292 1057.38 320.25C1059.92 318.167 1062.98 316.375 1066.56 314.875C1070.19 313.375 1074.35 312.208 1079.06 311.375C1083.81 310.5 1089.21 310.062 1095.25 310.062C1099.62 310.062 1104.02 310.312 1108.44 310.812C1112.85 311.271 1117.15 311.938 1121.31 312.812C1125.52 313.688 1129.56 314.75 1133.44 316C1137.31 317.208 1140.92 318.562 1144.25 320.062L1135.56 336.062C1132.81 334.854 1129.85 333.75 1126.69 332.75C1123.52 331.708 1120.21 330.812 1116.75 330.062C1113.29 329.312 1109.71 328.729 1106 328.312C1102.33 327.854 1098.58 327.625 1094.75 327.625C1089.29 327.625 1084.79 328.021 1081.25 328.812C1077.75 329.604 1074.96 330.625 1072.88 331.875C1070.79 333.083 1069.33 334.458 1068.5 336C1067.71 337.5 1067.31 339 1067.31 340.5C1067.31 343.417 1068.62 345.812 1071.25 347.688C1073.88 349.521 1077.88 350.438 1083.25 350.438C1085.42 350.438 1087.9 350.292 1090.69 350C1093.52 349.667 1096.48 349.312 1099.56 348.938C1102.69 348.562 1105.85 348.229 1109.06 347.938C1112.31 347.604 1115.46 347.438 1118.5 347.438C1124.25 347.438 1129.33 348.083 1133.75 349.375C1138.21 350.667 1141.94 352.521 1144.94 354.938C1147.94 357.312 1150.21 360.208 1151.75 363.625C1153.29 367 1154.06 370.792 1154.06 375C1154.06 380.625 1152.75 385.646 1150.12 390.062C1147.54 394.438 1143.83 398.146 1139 401.188C1134.21 404.188 1128.42 406.479 1121.62 408.062C1114.83 409.604 1107.27 410.375 1098.94 410.375C1093.44 410.375 1088.06 410.021 1082.81 409.312C1077.56 408.646 1072.52 407.688 1067.69 406.438C1062.9 405.146 1058.31 403.625 1053.94 401.875C1049.6 400.083 1045.58 398.125 1041.88 396L1052.44 379.938Z" fill="#00661D"/>
<path d="M1162.81 344.312H1184.75L1215.44 418.812L1246.12 344.312H1268.06L1225.25 442H1205.62L1162.81 344.312ZM1316.06 344.312H1337.06L1384.31 442H1363.5L1355.69 425.562H1298.62L1291.06 442H1270.19L1316.06 344.312ZM1347.88 409.25L1326.75 364.875L1306.19 409.25H1347.88ZM1399.5 344.312H1419.31V424.625H1476.12V442H1399.5V344.312ZM1489.62 392.875C1489.62 385.5 1490.98 378.75 1493.69 372.625C1496.4 366.5 1500.19 361.25 1505.06 356.875C1509.98 352.458 1515.85 349.042 1522.69 346.625C1529.56 344.208 1537.17 343 1545.5 343C1553.79 343 1561.38 344.208 1568.25 346.625C1575.12 349.042 1581 352.458 1585.88 356.875C1590.79 361.25 1594.6 366.5 1597.31 372.625C1600.02 378.75 1601.38 385.5 1601.38 392.875C1601.38 400.292 1600.02 407.104 1597.31 413.312C1594.6 419.479 1590.79 424.792 1585.88 429.25C1581 433.708 1575.12 437.188 1568.25 439.688C1561.38 442.146 1553.79 443.375 1545.5 443.375C1537.17 443.375 1529.56 442.146 1522.69 439.688C1515.85 437.188 1509.98 433.708 1505.06 429.25C1500.19 424.792 1496.4 419.479 1493.69 413.312C1490.98 407.104 1489.62 400.292 1489.62 392.875ZM1509.44 392.875C1509.44 397.917 1510.33 402.458 1512.12 406.5C1513.96 410.542 1516.48 414 1519.69 416.875C1522.94 419.708 1526.75 421.896 1531.12 423.438C1535.54 424.979 1540.33 425.75 1545.5 425.75C1550.67 425.75 1555.44 424.979 1559.81 423.438C1564.23 421.896 1568.04 419.708 1571.25 416.875C1574.46 414 1576.98 410.542 1578.81 406.5C1580.65 402.458 1581.56 397.917 1581.56 392.875C1581.56 387.833 1580.65 383.312 1578.81 379.312C1576.98 375.312 1574.46 371.938 1571.25 369.188C1568.04 366.396 1564.23 364.271 1559.81 362.812C1555.44 361.354 1550.67 360.625 1545.5 360.625C1540.33 360.625 1535.54 361.354 1531.12 362.812C1526.75 364.271 1522.94 366.396 1519.69 369.188C1516.48 371.938 1513.96 375.312 1512.12 379.312C1510.33 383.312 1509.44 387.833 1509.44 392.875ZM1623.38 344.312H1673.06C1680.56 344.312 1687.06 345.104 1692.56 346.688C1698.06 348.229 1702.62 350.479 1706.25 353.438C1709.88 356.396 1712.56 360 1714.31 364.25C1716.1 368.5 1717 373.312 1717 378.688C1717 382.312 1716.56 385.771 1715.69 389.062C1714.81 392.312 1713.46 395.312 1711.62 398.062C1709.83 400.812 1707.56 403.271 1704.81 405.438C1702.06 407.562 1698.83 409.333 1695.12 410.75L1716.38 442H1692.12L1673.75 414.25H1673.19L1643.19 414.188V442H1623.38V344.312ZM1673.56 397.062C1677.31 397.062 1680.58 396.625 1683.38 395.75C1686.21 394.875 1688.56 393.646 1690.44 392.062C1692.35 390.479 1693.77 388.562 1694.69 386.312C1695.65 384.021 1696.12 381.479 1696.12 378.688C1696.12 373.229 1694.25 369.021 1690.5 366.062C1686.75 363.062 1681.1 361.562 1673.56 361.562H1643.19V397.062H1673.56ZM1740.5 344.312H1823.69V361.688H1760.31V381.188H1816.44V397.5H1760.31V424.688H1825V442H1740.5V344.312ZM1851.56 412.938C1855.1 414.938 1858.69 416.75 1862.31 418.375C1865.98 419.958 1869.77 421.312 1873.69 422.438C1877.6 423.521 1881.71 424.354 1886 424.938C1890.33 425.521 1894.94 425.812 1899.81 425.812C1905.69 425.812 1910.69 425.438 1914.81 424.688C1918.94 423.896 1922.29 422.833 1924.88 421.5C1927.5 420.125 1929.4 418.5 1930.56 416.625C1931.77 414.75 1932.38 412.708 1932.38 410.5C1932.38 406.958 1930.9 404.167 1927.94 402.125C1924.98 400.042 1920.42 399 1914.25 399C1911.54 399 1908.69 399.188 1905.69 399.562C1902.69 399.896 1899.65 400.271 1896.56 400.688C1893.52 401.104 1890.5 401.5 1887.5 401.875C1884.54 402.208 1881.75 402.375 1879.12 402.375C1874.75 402.375 1870.54 401.812 1866.5 400.688C1862.5 399.562 1858.94 397.875 1855.81 395.625C1852.73 393.375 1850.27 390.562 1848.44 387.188C1846.6 383.812 1845.69 379.875 1845.69 375.375C1845.69 372.708 1846.04 370.062 1846.75 367.438C1847.5 364.812 1848.67 362.312 1850.25 359.938C1851.88 357.521 1853.96 355.292 1856.5 353.25C1859.04 351.167 1862.1 349.375 1865.69 347.875C1869.31 346.375 1873.48 345.208 1878.19 344.375C1882.94 343.5 1888.33 343.062 1894.38 343.062C1898.75 343.062 1903.15 343.312 1907.56 343.812C1911.98 344.271 1916.27 344.938 1920.44 345.812C1924.65 346.688 1928.69 347.75 1932.56 349C1936.44 350.208 1940.04 351.562 1943.38 353.062L1934.69 369.062C1931.94 367.854 1928.98 366.75 1925.81 365.75C1922.65 364.708 1919.33 363.812 1915.88 363.062C1912.42 362.312 1908.83 361.729 1905.12 361.312C1901.46 360.854 1897.71 360.625 1893.88 360.625C1888.42 360.625 1883.92 361.021 1880.38 361.812C1876.88 362.604 1874.08 363.625 1872 364.875C1869.92 366.083 1868.46 367.458 1867.62 369C1866.83 370.5 1866.44 372 1866.44 373.5C1866.44 376.417 1867.75 378.812 1870.38 380.688C1873 382.521 1877 383.438 1882.38 383.438C1884.54 383.438 1887.02 383.292 1889.81 383C1892.65 382.667 1895.6 382.312 1898.69 381.938C1901.81 381.562 1904.98 381.229 1908.19 380.938C1911.44 380.604 1914.58 380.438 1917.62 380.438C1923.38 380.438 1928.46 381.083 1932.88 382.375C1937.33 383.667 1941.06 385.521 1944.06 387.938C1947.06 390.312 1949.33 393.208 1950.88 396.625C1952.42 400 1953.19 403.792 1953.19 408C1953.19 413.625 1951.88 418.646 1949.25 423.062C1946.67 427.438 1942.96 431.146 1938.12 434.188C1933.33 437.188 1927.54 439.479 1920.75 441.062C1913.96 442.604 1906.4 443.375 1898.06 443.375C1892.56 443.375 1887.19 443.021 1881.94 442.312C1876.69 441.646 1871.65 440.688 1866.81 439.438C1862.02 438.146 1857.44 436.625 1853.06 434.875C1848.73 433.083 1844.71 431.125 1841 429L1851.56 412.938Z" fill="#00661D"/>
<defs>
<filter id="filter0_ddddii_692_4" x="0.0136719" y="0.984741" width="2366.01" height="2270.01" filterUnits="userSpaceOnUse" color-interpolation-filters="sRGB">
<feFlood flood-opacity="0" result="BackgroundImageFix"/>
<feColorMatrix in="SourceAlpha" type="matrix" values="0 0 0 0 0 0 0 0 0 0 0 0 0 0 0 0 0 0 127 0" result="hardAlpha"/>
<feOffset dx="5" dy="5"/>
<feGaussianBlur stdDeviation="6.5"/>
<feColorMatrix type="matrix" values="0 0 0 0 0.827451 0 0 0 0 0.85098 0 0 0 0 0.878431 0 0 0 0.9 0"/>
<feBlend mode="normal" in2="BackgroundImageFix" result="effect1_dropShadow_692_4"/>
<feColorMatrix in="SourceAlpha" type="matrix" values="0 0 0 0 0 0 0 0 0 0 0 0 0 0 0 0 0 0 127 0" result="hardAlpha"/>
<feOffset dx="-5" dy="-5"/>
<feGaussianBlur stdDeviation="5"/>
<feColorMatrix type="matrix" values="0 0 0 0 0.992157 0 0 0 0 1 0 0 0 0 1 0 0 0 0.9 0"/>
<feBlend mode="normal" in2="effect1_dropShadow_692_4" result="effect2_dropShadow_692_4"/>
<feColorMatrix in="SourceAlpha" type="matrix" values="0 0 0 0 0 0 0 0 0 0 0 0 0 0 0 0 0 0 127 0" result="hardAlpha"/>
<feOffset dx="5" dy="-5"/>
<feGaussianBlur stdDeviation="5"/>
<feColorMatrix type="matrix" values="0 0 0 0 0.827451 0 0 0 0 0.85098 0 0 0 0 0.878431 0 0 0 0.2 0"/>
<feBlend mode="normal" in2="effect2_dropShadow_692_4" result="effect3_dropShadow_692_4"/>
<feColorMatrix in="SourceAlpha" type="matrix" values="0 0 0 0 0 0 0 0 0 0 0 0 0 0 0 0 0 0 127 0" result="hardAlpha"/>
<feOffset dx="-5" dy="5"/>
<feGaussianBlur stdDeviation="5"/>
<feColorMatrix type="matrix" values="0 0 0 0 0.827451 0 0 0 0 0.85098 0 0 0 0 0.878431 0 0 0 0.2 0"/>
<feBlend mode="normal" in2="effect3_dropShadow_692_4" result="effect4_dropShadow_692_4"/>
<feBlend mode="normal" in="SourceGraphic" in2="effect4_dropShadow_692_4" result="shape"/>
<feColorMatrix in="SourceAlpha" type="matrix" values="0 0 0 0 0 0 0 0 0 0 0 0 0 0 0 0 0 0 127 0" result="hardAlpha"/>
<feOffset dx="-1" dy="-1"/>
<feGaussianBlur stdDeviation="1"/>
<feComposite in2="hardAlpha" operator="arithmetic" k2="-1" k3="1"/>
<feColorMatrix type="matrix" values="0 0 0 0 0.827451 0 0 0 0 0.85098 0 0 0 0 0.878431 0 0 0 0.5 0"/>
<feBlend mode="normal" in2="shape" result="effect5_innerShadow_692_4"/>
<feColorMatrix in="SourceAlpha" type="matrix" values="0 0 0 0 0 0 0 0 0 0 0 0 0 0 0 0 0 0 127 0" result="hardAlpha"/>
<feOffset dx="1" dy="1"/>
<feGaussianBlur stdDeviation="1"/>
<feComposite in2="hardAlpha" operator="arithmetic" k2="-1" k3="1"/>
<feColorMatrix type="matrix" values="0 0 0 0 0.992157 0 0 0 0 1 0 0 0 0 1 0 0 0 0.3 0"/>
<feBlend mode="normal" in2="effect5_innerShadow_692_4" result="effect6_innerShadow_692_4"/>
</filter>
</defs>
</svg>
