<svg width="119" height="155" viewBox="0 0 119 155" fill="none" xmlns="http://www.w3.org/2000/svg">
<path d="M42.4228 85.817L48.84 64.9151L31.9718 51.3471H52.8738L59.4744 30.8119L66.075 51.3471H86.9769L69.9253 64.9151L76.3426 85.817L59.4744 72.7991L42.4228 85.817ZM15.4703 154.023V97.3681C10.8254 92.2343 7.21951 86.3671 4.6526 79.7665C2.0857 73.1658 0.802246 66.1374 0.802246 58.6812C0.802246 42.3019 6.48611 28.4283 17.8538 17.0606C29.2216 5.6929 43.0951 0.0090332 59.4744 0.0090332C75.8537 0.0090332 89.7272 5.6929 101.095 17.0606C112.463 28.4283 118.146 42.3019 118.146 58.6812C118.146 66.1374 116.863 73.1658 114.296 79.7665C111.729 86.3671 108.123 92.2343 103.478 97.3681V154.023L59.4744 139.355L15.4703 154.023ZM59.4744 102.685C71.6977 102.685 82.0876 98.4071 90.6439 89.8507C99.2003 81.2944 103.478 70.9045 103.478 58.6812C103.478 46.4578 99.2003 36.0679 90.6439 27.5116C82.0876 18.9552 71.6977 14.6771 59.4744 14.6771C47.251 14.6771 36.8612 18.9552 28.3048 27.5116C19.7485 36.0679 15.4703 46.4578 15.4703 58.6812C15.4703 70.9045 19.7485 81.2944 28.3048 89.8507C36.8612 98.4071 47.251 102.685 59.4744 102.685ZM30.1383 132.205L59.4744 124.687L88.8104 132.205V109.469C84.5323 111.914 79.9179 113.839 74.9675 115.245C70.017 116.65 64.8527 117.353 59.4744 117.353C54.0961 117.353 48.9317 116.65 43.9813 115.245C39.0308 113.839 34.4165 111.914 30.1383 109.469V132.205Z" fill="#00661D"/>
</svg>
