<svg width="146" height="143" viewBox="0 0 146 143" fill="none" xmlns="http://www.w3.org/2000/svg">
<path d="M132.588 64.6753L128.546 55.7825L119.653 51.7403L128.546 47.6981L132.588 38.8052L136.631 47.6981L145.524 51.7403L136.631 55.7825L132.588 64.6753ZM113.185 38.8052L107.041 25.5468L93.7819 19.4026L107.041 13.2584L113.185 0L119.329 13.2584L132.588 19.4026L119.329 25.5468L113.185 38.8052ZM48.5079 142.286C44.9507 142.286 41.9054 141.019 39.3722 138.486C36.8391 135.953 35.5725 132.908 35.5725 129.351H61.4433C61.4433 132.908 60.1767 135.953 57.6436 138.486C55.1104 141.019 52.0651 142.286 48.5079 142.286ZM22.637 122.883V109.948H74.3788V122.883H22.637ZM24.254 103.481C16.8161 99.0611 10.9143 93.1325 6.54857 85.6948C2.18286 78.2572 0 70.1727 0 61.4416C0 47.9675 4.71605 36.5146 14.1481 27.0828C23.5802 17.651 35.0335 12.9351 48.5079 12.9351C61.9823 12.9351 73.4356 17.651 82.8677 27.0828C92.2998 36.5146 97.0158 47.9675 97.0158 61.4416C97.0158 70.1727 94.8329 78.2572 90.4672 85.6948C86.1015 93.1325 80.1997 99.0611 72.7618 103.481H24.254ZM28.1346 90.5455H68.8812C73.732 87.0961 77.4779 82.8383 80.1189 77.7721C82.7599 72.7059 84.0804 67.2624 84.0804 61.4416C84.0804 51.5247 80.6309 43.1169 73.732 36.2182C66.8331 29.3195 58.4251 25.8701 48.5079 25.8701C38.5907 25.8701 30.1827 29.3195 23.2838 36.2182C16.3849 43.1169 12.9354 51.5247 12.9354 61.4416C12.9354 67.2624 14.2559 72.7059 16.8969 77.7721C19.5379 82.8383 23.2838 87.0961 28.1346 90.5455Z" fill="#00661D"/>
</svg>
