<svg width="139" height="136" viewBox="0 0 139 136" fill="none" xmlns="http://www.w3.org/2000/svg">
<path d="M99.3335 72.5834C94.2863 67.975 89.3762 63.449 84.6033 59.0052C79.8304 54.5615 75.6061 50.2 71.9304 45.9209C68.2547 41.6417 65.3196 37.4997 63.1252 33.4948C60.9307 29.49 59.8335 25.6222 59.8335 21.8917C59.8335 15.7472 61.9182 10.5903 66.0877 6.42085C70.2571 2.25141 75.4141 0.166687 81.5585 0.166687C85.0696 0.166687 88.3613 0.907312 91.4335 2.38856C94.5057 3.86981 97.1391 5.87224 99.3335 8.39585C101.528 5.87224 104.161 3.86981 107.234 2.38856C110.306 0.907312 113.597 0.166687 117.109 0.166687C123.253 0.166687 128.41 2.25141 132.579 6.42085C136.749 10.5903 138.833 15.7472 138.833 21.8917C138.833 25.6222 137.736 29.49 135.542 33.4948C133.347 37.4997 130.412 41.6417 126.737 45.9209C123.061 50.2 118.864 54.5615 114.146 59.0052C109.428 63.449 104.49 67.975 99.3335 72.5834ZM99.3335 54.8084C105.807 48.6639 111.814 42.5469 117.355 36.4573C122.896 30.3677 125.667 25.5125 125.667 21.8917C125.667 19.3681 124.871 17.3108 123.28 15.7198C121.689 14.1288 119.632 13.3334 117.109 13.3334C115.572 13.3334 114.119 13.6351 112.747 14.2386C111.376 14.842 110.196 15.7472 109.208 16.9542L99.3335 28.8042L89.4585 16.9542C88.471 15.7472 87.2915 14.842 85.92 14.2386C84.5484 13.6351 83.0946 13.3334 81.5585 13.3334C79.0349 13.3334 76.9776 14.1288 75.3866 15.7198C73.7957 17.3108 73.0002 19.3681 73.0002 21.8917C73.0002 25.5125 75.7707 30.3677 81.3116 36.4573C86.8526 42.5469 92.8599 48.6639 99.3335 54.8084ZM86.1668 135.125L40.0835 122.288V131.833H0.583496V59.4167H52.921L93.7377 74.5584C97.3585 75.875 100.294 78.1792 102.543 81.4709C104.792 84.7625 105.917 88.3834 105.917 92.3334H119.083C124.57 92.3334 129.233 94.1438 133.073 97.7646C136.913 101.385 138.833 106.158 138.833 112.083V118.667L86.1668 135.125ZM13.7502 118.667H26.9168V72.5834H13.7502V118.667ZM85.8377 121.3L125.008 109.121C124.679 107.914 123.939 107.009 122.787 106.405C121.635 105.802 120.4 105.5 119.083 105.5H87.4835C84.0821 105.5 81.0099 105.281 78.2668 104.842C75.5238 104.403 72.5613 103.635 69.3793 102.538L58.0231 98.5875L61.8085 86.0792L74.9752 90.3584C76.9502 91.0167 79.2543 91.5104 81.8877 91.8396C84.521 92.1688 88.1418 92.3334 92.7502 92.3334C92.7502 91.1264 92.3936 89.9743 91.6804 88.8771C90.9672 87.7799 90.1168 87.0667 89.1293 86.7375L50.6168 72.5834H40.0835V108.792L85.8377 121.3Z" fill="#00661D"/>
</svg>
