<svg width="115" height="17" viewBox="0 0 115 17" fill="none" xmlns="http://www.w3.org/2000/svg">
<path d="M0.167969 0.736328H13.166V3.45117H3.26367V6.49805H12.0332V9.04688H3.26367V13.2949H13.3711V16H0.167969V0.736328ZM16.7891 0.736328H19.8848L29.3965 5.7168V0.736328H32.4922V16H29.3965V8.99805L19.8848 4.04688V16H16.7891V0.736328ZM36.8086 0.736328H49.8066V3.45117H39.9043V6.49805H48.6738V9.04688H39.9043V13.2949H50.0117V16H36.8086V0.736328ZM53.4492 0.736328H61.2129C62.3848 0.736328 63.4004 0.860026 64.2598 1.10742C65.1191 1.34831 65.832 1.69987 66.3984 2.16211C66.9648 2.62435 67.3848 3.1875 67.6582 3.85156C67.9382 4.51562 68.0781 5.26758 68.0781 6.10742C68.0781 6.67383 68.0098 7.21419 67.873 7.72852C67.7363 8.23633 67.5247 8.70508 67.2383 9.13477C66.9583 9.56445 66.6035 9.94857 66.1738 10.2871C65.7441 10.6191 65.2396 10.8958 64.6602 11.1172L67.9805 16H64.1914L61.3203 11.6641H61.2324L56.5449 11.6543V16H53.4492V0.736328ZM61.291 8.97852C61.877 8.97852 62.388 8.91016 62.8242 8.77344C63.2669 8.63672 63.6348 8.44466 63.9277 8.19727C64.2272 7.94987 64.4486 7.65039 64.5918 7.29883C64.7415 6.94076 64.8164 6.54362 64.8164 6.10742C64.8164 5.25456 64.5234 4.59701 63.9375 4.13477C63.3516 3.66602 62.4694 3.43164 61.291 3.43164H56.5449V8.97852H61.291ZM70.7051 8.22656C70.7051 7.15234 70.9069 6.14974 71.3105 5.21875C71.7142 4.28125 72.3034 3.46745 73.0781 2.77734C73.8529 2.08724 74.8034 1.54362 75.9297 1.14648C77.0625 0.749349 78.3581 0.550781 79.8164 0.550781C80.3438 0.550781 80.8711 0.580078 81.3984 0.638672C81.9323 0.690755 82.4564 0.775391 82.9707 0.892578C83.4915 1.00977 83.9961 1.15951 84.4844 1.3418C84.9792 1.51758 85.4479 1.72917 85.8906 1.97656L84.4648 4.32031C84.1979 4.16406 83.8952 4.02409 83.5566 3.90039C83.2181 3.77018 82.8535 3.66276 82.4629 3.57812C82.0788 3.48698 81.6784 3.41862 81.2617 3.37305C80.8516 3.32747 80.4382 3.30469 80.0215 3.30469C79.0579 3.30469 78.1986 3.42839 77.4434 3.67578C76.6882 3.91667 76.0501 4.25846 75.5293 4.70117C75.0085 5.13737 74.6113 5.66146 74.3379 6.27344C74.0645 6.88542 73.9277 7.55599 73.9277 8.28516C73.9277 9.04036 74.071 9.73372 74.3574 10.3652C74.6439 10.9967 75.0508 11.5404 75.5781 11.9961C76.1055 12.4518 76.7435 12.8099 77.4922 13.0703C78.2409 13.3242 79.0775 13.4512 80.002 13.4512C80.7376 13.4512 81.4115 13.3698 82.0234 13.207C82.6354 13.0378 83.1693 12.8001 83.625 12.4941C84.0807 12.1882 84.4518 11.8203 84.7383 11.3906C85.0247 10.9544 85.2135 10.4661 85.3047 9.92578H79.9727V7.37695H88.0879V7.38672L88.0977 7.37695C88.2604 8.1582 88.3092 8.91992 88.2441 9.66211C88.1855 10.3978 88.0163 11.0944 87.7363 11.752C87.4629 12.403 87.0853 13.002 86.6035 13.5488C86.1217 14.0957 85.5456 14.5677 84.875 14.9648C84.2044 15.3555 83.4427 15.6615 82.5898 15.8828C81.737 16.0977 80.8027 16.2051 79.7871 16.2051C78.3678 16.2051 77.0951 15.9967 75.9688 15.5801C74.849 15.1634 73.8984 14.5938 73.1172 13.8711C72.3359 13.1484 71.737 12.3021 71.3203 11.332C70.9102 10.362 70.7051 9.32682 70.7051 8.22656ZM91.3594 0.736328H94.4746V16H91.3594V0.736328ZM98.4102 0.736328H101.506L111.018 5.7168V0.736328H114.113V16H111.018V8.99805L101.506 4.04688V16H98.4102V0.736328Z" fill="url(#paint0_linear_454_358)"/>
<defs>
<linearGradient id="paint0_linear_454_358" x1="-6.571e-08" y1="7.99999" x2="114" y2="7.99999" gradientUnits="userSpaceOnUse">
<stop stop-color="#151F5D"/>
<stop offset="1" stop-color="#00661D"/>
</linearGradient>
</defs>
</svg>
