<svg width="45" height="45" viewBox="0 0 45 45" fill="none" xmlns="http://www.w3.org/2000/svg">
<path d="M12.5 0C5.6075 0 0 5.6075 0 12.5V32.5C0 39.3925 5.6075 45 12.5 45H32.5C39.3925 45 45 39.3925 45 32.5V12.5C45 5.6075 39.3925 0 32.5 0H12.5ZM12.5 5H32.5C36.635 5 40 8.365 40 12.5V32.5C40 36.635 36.635 40 32.5 40H12.5C8.365 40 5 36.635 5 32.5V12.5C5 8.365 8.365 5 12.5 5ZM35 7.5C34.337 7.5 33.7011 7.76339 33.2322 8.23223C32.7634 8.70107 32.5 9.33696 32.5 10C32.5 10.663 32.7634 11.2989 33.2322 11.7678C33.7011 12.2366 34.337 12.5 35 12.5C35.663 12.5 36.2989 12.2366 36.7678 11.7678C37.2366 11.2989 37.5 10.663 37.5 10C37.5 9.33696 37.2366 8.70107 36.7678 8.23223C36.2989 7.76339 35.663 7.5 35 7.5ZM22.5 10C15.6075 10 10 15.6075 10 22.5C10 29.3925 15.6075 35 22.5 35C29.3925 35 35 29.3925 35 22.5C35 15.6075 29.3925 10 22.5 10ZM22.5 15C26.635 15 30 18.365 30 22.5C30 26.635 26.635 30 22.5 30C18.365 30 15 26.635 15 22.5C15 18.365 18.365 15 22.5 15Z" fill="white"/>
</svg>
