<svg width="45" height="45" viewBox="0 0 45 45" fill="none" xmlns="http://www.w3.org/2000/svg">
<path d="M5 0C2.2375 0 0 2.2375 0 5V40C0 42.7625 2.2375 45 5 45H40C42.7625 45 45 42.7625 45 40V5C45 2.2375 42.7625 0 40 0H5ZM5 5H40V40H5V5ZM11.9482 8.29102C9.80574 8.29102 8.52051 9.57895 8.52051 11.2939C8.52051 13.0089 9.8059 14.292 11.7334 14.292C13.8759 14.292 15.1611 13.0089 15.1611 11.2939C15.1611 9.57895 13.8757 8.29102 11.9482 8.29102ZM8.69141 17.5V35H15V17.5H8.69141ZM20.2051 17.5V35H26.5137V25.4346C26.5137 22.5871 28.5453 22.1777 29.1553 22.1777C29.7653 22.1777 31.3965 22.7896 31.3965 25.4346V35H37.5V25.4346C37.5 19.9421 35.0593 17.5 32.0068 17.5C28.9543 17.5 27.3262 18.5164 26.5137 19.9414V17.5H20.2051Z" fill="white"/>
</svg>
