<svg width="35" height="35" viewBox="0 0 35 35" fill="none" xmlns="http://www.w3.org/2000/svg">
<path d="M17.5199 0.416504C8.11377 0.416504 0.456623 8.06706 0.453206 17.4731C0.451498 20.4798 1.23901 23.4151 2.7321 26.0015L0.416504 34.5832L9.35522 32.4711C11.8477 33.8309 14.6535 34.5448 17.5098 34.5465H17.5165C26.9209 34.5465 34.5747 26.8942 34.5798 17.4898C34.5833 12.9303 32.8102 8.64338 29.5883 5.41805C26.3664 2.19443 22.0845 0.418212 17.5199 0.416504ZM17.5165 3.83317C21.1655 3.83488 24.5947 5.25757 27.1726 7.83374C29.7505 10.4133 31.1666 13.8409 31.1632 17.4865C31.1598 25.01 25.0401 31.1298 17.5132 31.1298C15.236 31.1281 12.9803 30.5563 10.9935 29.4715L9.84237 28.8442L8.57113 29.1445L5.20785 29.9386L6.02865 26.889L6.39901 25.521L5.69165 24.2931C4.49923 22.2295 3.86816 19.8699 3.86987 17.4731C3.87329 9.95306 9.99473 3.83317 17.5165 3.83317ZM11.4806 9.5988C11.1953 9.5988 10.7341 9.70557 10.3429 10.1327C9.95165 10.558 8.84806 11.5883 8.84806 13.6861C8.84806 15.7839 10.3762 17.8118 10.5898 18.0971C10.8016 18.3807 13.5395 22.8217 17.8735 24.53C21.4747 25.9497 22.2061 25.6695 22.9885 25.5977C23.7709 25.5277 25.5127 24.5684 25.868 23.5724C26.2233 22.5765 26.2242 21.7197 26.1182 21.5438C26.0123 21.3661 25.7279 21.2602 25.3008 21.0466C24.8754 20.8331 22.7791 19.8037 22.3879 19.6619C21.9967 19.5202 21.7106 19.4484 21.427 19.8755C21.1434 20.3026 20.3284 21.2602 20.079 21.5438C19.8296 21.8291 19.5819 21.8674 19.1548 21.6539C18.7277 21.4386 17.3545 20.9872 15.7248 19.5352C14.4572 18.4059 13.6019 17.0127 13.3525 16.5856C13.1047 16.1602 13.3291 15.9266 13.5426 15.7148C13.734 15.5234 13.9664 15.2168 14.1799 14.9674C14.3918 14.7179 14.4652 14.5403 14.607 14.2567C14.7488 13.9731 14.6762 13.7228 14.5703 13.5093C14.4644 13.2957 13.6349 11.1901 13.2557 10.3462C12.9362 9.63723 12.5988 9.62076 12.2948 9.60881C12.0471 9.59856 11.7642 9.5988 11.4806 9.5988Z" fill="white"/>
</svg>
