<svg width="51" height="49" viewBox="0 0 51 49" fill="none" xmlns="http://www.w3.org/2000/svg">
<path d="M17.7087 48.5625L13.3545 41.2292L5.10449 39.3958L5.90658 30.9167L0.291992 24.5L5.90658 18.0833L5.10449 9.60417L13.3545 7.77083L17.7087 0.4375L25.5003 3.76042L33.292 0.4375L37.6462 7.77083L45.8962 9.60417L45.0941 18.0833L50.7087 24.5L45.0941 30.9167L45.8962 39.3958L37.6462 41.2292L33.292 48.5625L25.5003 45.2396L17.7087 48.5625ZM19.6566 42.7188L25.5003 40.1979L31.4587 42.7188L34.667 37.2188L40.9691 35.7292L40.3962 29.3125L44.6357 24.5L40.3962 19.5729L40.9691 13.1563L34.667 11.7813L31.3441 6.28125L25.5003 8.80208L19.542 6.28125L16.3337 11.7813L10.0316 13.1563L10.6045 19.5729L6.36491 24.5L10.6045 29.3125L10.0316 35.8438L16.3337 37.2188L19.6566 42.7188ZM23.0941 32.6354L36.042 19.6875L32.8337 16.3646L23.0941 26.1042L18.167 21.2917L14.9587 24.5L23.0941 32.6354Z" fill="#00661D"/>
</svg>
