<svg width="51" height="43" viewBox="0 0 51 43" fill="none" xmlns="http://www.w3.org/2000/svg">
<path d="M39.1357 31.0677L32.6045 24.5938L35.8701 21.3854L39.1357 24.5938L47.2139 16.5156L50.4795 19.724L39.1357 31.0677ZM23.2087 42.125L15.9326 35.5938C13.1826 33.1111 10.8241 30.8958 8.8571 28.9479C6.89008 27 5.26682 25.1667 3.9873 23.4479C2.70779 21.7292 1.77203 20.0677 1.18001 18.4635C0.587999 16.8594 0.291992 15.1788 0.291992 13.4219C0.291992 9.8316 1.49512 6.84288 3.90137 4.45573C6.30762 2.06858 9.30588 0.875 12.8962 0.875C14.8823 0.875 16.7729 1.29514 18.568 2.13542C20.3632 2.97569 21.91 4.15972 23.2087 5.6875C24.5073 4.15972 26.0541 2.97569 27.8493 2.13542C29.6444 1.29514 31.535 0.875 33.5212 0.875C36.6149 0.875 39.2121 1.74392 41.3128 3.48177C43.4135 5.21962 44.8458 7.40625 45.6097 10.0417H40.7399C40.0524 8.51389 39.0403 7.36806 37.7035 6.60417C36.3666 5.84028 34.9725 5.45833 33.5212 5.45833C31.5732 5.45833 29.8927 5.98351 28.4795 7.03385C27.0663 8.0842 25.7486 9.46875 24.5264 11.1875H21.891C20.7069 9.46875 19.3606 8.0842 17.8519 7.03385C16.3432 5.98351 14.6913 5.45833 12.8962 5.45833C10.7191 5.45833 8.838 6.21267 7.25293 7.72135C5.66786 9.23003 4.87533 11.1302 4.87533 13.4219C4.87533 14.6823 5.14269 15.9618 5.67741 17.2604C6.21213 18.559 7.16699 20.0582 8.54199 21.7578C9.91699 23.4575 11.7885 25.4436 14.1566 27.7161C16.5246 29.9887 19.542 32.7292 23.2087 35.9375C24.2017 35.059 25.3666 34.0469 26.7035 32.901C28.0403 31.7552 29.1097 30.8003 29.9118 30.0365L33.1774 33.3021C32.3371 34.066 31.2677 35.0113 29.9691 36.138C28.6705 37.2648 27.5246 38.2674 26.5316 39.1458L23.2087 42.125Z" fill="#00661D"/>
</svg>
