<svg width="51" height="35" viewBox="0 0 51 35" fill="none" xmlns="http://www.w3.org/2000/svg">
<path d="M25.5003 27.6665C28.3649 27.6665 30.7998 26.6639 32.805 24.6587C34.8102 22.6535 35.8128 20.2186 35.8128 17.354C35.8128 14.4894 34.8102 12.0545 32.805 10.0493C30.7998 8.04411 28.3649 7.0415 25.5003 7.0415C22.6357 7.0415 20.2008 8.04411 18.1956 10.0493C16.1904 12.0545 15.1878 14.4894 15.1878 17.354C15.1878 20.2186 16.1904 22.6535 18.1956 24.6587C20.2008 26.6639 22.6357 27.6665 25.5003 27.6665ZM25.5003 23.5415C23.7816 23.5415 22.3206 22.9399 21.1175 21.7368C19.9144 20.5337 19.3128 19.0728 19.3128 17.354C19.3128 15.6353 19.9144 14.1743 21.1175 12.9712C22.3206 11.7681 23.7816 11.1665 25.5003 11.1665C27.2191 11.1665 28.68 11.7681 29.8831 12.9712C31.0863 14.1743 31.6878 15.6353 31.6878 17.354C31.6878 19.0728 31.0863 20.5337 29.8831 21.7368C28.68 22.9399 27.2191 23.5415 25.5003 23.5415ZM25.5003 34.5415C19.9239 34.5415 14.8441 32.9851 10.2607 29.8722C5.67741 26.7594 2.35449 22.5866 0.291992 17.354C2.35449 12.1214 5.67741 7.94862 10.2607 4.83578C14.8441 1.72293 19.9239 0.166504 25.5003 0.166504C31.0767 0.166504 36.1566 1.72293 40.7399 4.83578C45.3232 7.94862 48.6462 12.1214 50.7087 17.354C48.6462 22.5866 45.3232 26.7594 40.7399 29.8722C36.1566 32.9851 31.0767 34.5415 25.5003 34.5415ZM25.5003 29.9582C29.8163 29.9582 33.779 28.8219 37.3883 26.5493C40.9977 24.2767 43.7573 21.2116 45.667 17.354C43.7573 13.4964 40.9977 10.4313 37.3883 8.15869C33.779 5.88612 29.8163 4.74984 25.5003 4.74984C21.1844 4.74984 17.2217 5.88612 13.6123 8.15869C10.0029 10.4313 7.24338 13.4964 5.33366 17.354C7.24338 21.2116 10.0029 24.2767 13.6123 26.5493C17.2217 28.8219 21.1844 29.9582 25.5003 29.9582Z" fill="#00661D"/>
</svg>
